Coordinates
version=1
nRows=13
nColumns=36
inDegrees=yes

Units are S.I. units (second, meters, Newtons, ...)
If the header above contains a line with 'inDegrees', this indicates whether rotational values are in degrees (yes) or radians (no).

endheader
time	pelvis_tilt	pelvis_list	pelvis_rotation	pelvis_tx	pelvis_ty	pelvis_tz	hip_flexion_r	hip_adduction_r	hip_rotation_r	knee_angle_r	knee_angle_r_beta	ankle_angle_r	subtalar_angle_r	mtp_angle_r	hip_flexion_l	hip_adduction_l	hip_rotation_l	knee_angle_l	knee_angle_l_beta	ankle_angle_l	subtalar_angle_l	mtp_angle_l	lumbar_extension	lumbar_bending	lumbar_rotation	arm_flex_r	arm_add_r	arm_rot_r	elbow_flex_r	pro_sup_r	arm_flex_l	arm_add_l	arm_rot_l	elbow_flex_l	pro_sup_l
      4.91666670	     -8.53837048	      0.46336398	      0.13362215	      0.76326454	      0.77336272	      0.13951990	     57.94457899	      9.89782393	     -2.34217869	     82.37239563	      1.43766952	     30.23600522	     -4.36579436	     -7.49999987	     64.61863914	     -6.11908460	     -3.31420743	     11.55138474	      0.20160970	    -15.93332394	     -2.81784197	     -7.49999987	    -40.66210300	      0.15580115	      3.51545584	     76.43612773	      7.07897058	     70.97451563	    129.28621601	     91.99772150	     71.30315051	      0.55984574	     79.12707218	    130.67470152	     84.45813484
      4.93333330	     -8.30646920	      0.41173526	      0.06745502	      0.76311739	      0.76739495	      0.14091040	     58.38902611	     10.25701882	     -2.30236967	     83.30899033	      1.45401618	     30.52979930	     -4.91460235	     -7.49999987	     64.74157639	     -6.14120515	     -3.15708904	     11.56850450	      0.20190849	    -16.01268255	     -2.53989609	     -7.49999987	    -41.76092625	      0.16063420	      3.52541773	     77.43579459	      7.27597135	     71.11993410	    129.14934908	     92.02910781	     71.90769511	      0.76806837	     79.93710972	    130.90995025	     84.56804475
      4.95000000	     -7.92794840	      0.52690136	      0.03345806	      0.76303876	      0.76217142	      0.14063861	     58.76008352	     10.51837111	     -2.13339701	     84.37566094	      1.47263309	     30.77305731	     -5.69572075	     -7.49999987	     64.81644445	     -6.06044374	     -3.24511850	     11.75727470	      0.20520315	    -16.05297114	     -2.08029216	     -7.49999987	    -43.13908171	     -0.08017614	      3.25898143	     78.12227243	      7.05044252	     71.68169666	    129.08527048	     92.08000956	     72.71871550	      0.30661674	     82.18243279	    131.39810823	     84.83277997
      4.96666670	     -7.87815336	      0.59658781	      0.11093997	      0.76268862	      0.75924702	      0.14171140	     59.21076130	     10.74633807	     -2.00195018	     85.09500795	      1.48518807	     31.24053248	     -6.26505939	     -7.49999987	     65.47010137	     -5.96343770	     -3.09335829	     12.24812125	      0.21377004	    -16.36958918	     -1.90816007	     -7.49999987	    -43.94425187	     -0.19241443	      3.02804137	     77.85967306	      7.07012302	     71.99988230	    128.92821891	     91.78925665	     73.79597410	      0.41201950	     82.09193294	    130.79832494	     84.69270787
      4.98333330	     -7.61247961	      0.81006670	     -0.13647509	      0.76278216	      0.75683393	      0.14196226	     59.29079259	     11.03965111	     -1.54030107	     85.65204232	      1.49491015	     31.59794161	     -6.70883267	     -7.49999987	     65.44005822	     -5.95895803	     -2.88123432	     12.38888902	      0.21622690	    -16.50347800	     -1.87661660	     -7.49999987	    -45.11521883	     -0.65954291	      3.16672321	     78.27365282	      6.54417709	     71.93045847	    129.45085659	     91.60016940	     74.77785917	      0.31022852	     82.73913969	    130.29300819	     84.47633126
      5.00000000	     -7.43307050	      0.86250798	     -0.45892649	      0.76288395	      0.75361699	      0.14261825	     59.33450745	     11.41742799	     -1.25882059	     86.07128066	      1.50222724	     31.75334727	     -6.86472883	     -7.49999987	     65.40489063	     -6.14508242	     -2.81367880	     12.50739457	      0.21829522	    -16.63415672	     -1.10524668	     -7.49999987	    -46.06843278	     -0.85273736	      3.36197920	     78.88762961	      6.47702285	     72.31727592	    129.61316013	     91.53612920	     75.26900730	      0.22516770	     83.19859561	    130.36698883	     84.51903139
      5.01666670	     -7.31249648	      0.82071921	     -0.65930755	      0.76327183	      0.75077837	      0.14276462	     59.40812253	     11.75608897	     -1.09661417	     86.37106365	      1.50745944	     32.08292529	     -7.26792251	     -7.49999987	     65.26832337	     -6.31398861	     -2.75103630	     12.55457080	      0.21911860	    -16.86674553	     -0.50997259	     -7.49999987	    -46.73931261	     -0.95307389	      3.34035716	     79.35663026	      6.37950150	     72.61421013	    129.74123778	     90.53195468	     75.32225445	     -0.07164110	     83.72597293	    130.22932394	     83.75553735
      5.03333330	     -7.25620764	      0.86242499	     -0.92263059	      0.76338013	      0.75054543	      0.14356701	     59.57655998	     12.09908527	     -0.94998363	     86.76573189	      1.51434770	     32.01500890	     -7.95183919	     -7.49999987	     65.25262740	     -6.42580731	     -2.31390685	     13.06184784	      0.22797225	    -17.05816306	     -0.50266850	     -7.49999987	    -47.55256359	     -1.18589344	      3.23258514	     80.04789115	      6.53646927	     73.30967902	    129.94893995	     90.27727972	     75.64285182	     -0.37459697	     84.89067441	    130.40791414	     83.77101803
      5.05000000	     -7.39518146	      0.95897173	     -0.85252375	      0.76385742	      0.74736348	      0.14280226	     59.92157954	     12.08339011	     -0.92444191	     87.19462151	      1.52183324	     31.90960473	     -8.25871178	     -7.49999987	     65.41663535	     -6.26681240	     -2.21719490	     13.21161552	      0.23058619	    -17.26794041	     -0.05558620	     -7.49999987	    -48.07212850	     -1.25566652	      3.09368661	     80.30847077	      6.53232022	     73.81554516	    130.13803981	     89.79669295	     75.75597842	     -0.49178008	     85.95049067	    130.73102185	     83.48475244
      5.06666670	     -7.94175306	      1.04431204	     -1.01927698	      0.76426822	      0.74370179	      0.14342239	     60.72757121	     12.26987721	     -0.81186082	     87.57354936	      1.52844677	     31.84221991	     -8.53263350	     -7.49999987	     66.21556506	     -6.26260494	     -2.20154222	     13.58180766	      0.23704726	    -17.15146182	     -0.31894437	     -7.49999987	    -48.17503047	     -1.42696510	      3.01185131	     80.33943523	      6.56008814	     74.37050758	    130.34767044	     93.35495467	     76.22668064	     -0.66356366	     86.91234641	    131.14822418	     88.09440224
      5.08333330	     -8.23627033	      1.04890810	     -1.24157639	      0.76493259	      0.74628979	      0.14373207	     60.91519374	     12.37399404	     -0.76846594	     87.39694233	      1.52536440	     32.22485384	     -8.64658350	     -7.49999987	     66.32823853	     -6.37973993	     -2.00206704	     13.43748006	      0.23452827	    -16.79411042	     -0.22976696	     -7.49999987	    -48.34425283	     -1.58372095	      3.15352243	     80.05521139	      6.41929848	     74.55052027	    130.74500457	     91.75882223	     76.57046767	     -0.32838103	     86.03963293	    130.91449909	     86.44154092
      5.10000000	     -8.61922312	      1.19675245	     -1.18051169	      0.76486892	      0.74318021	      0.14378287	     61.49279272	     12.23727871	     -0.71081715	     87.58107827	      1.52857818	     32.50286651	     -8.91533242	     -7.49999987	     66.91253174	     -6.19298852	     -2.16035050	     13.75885416	      0.24013731	    -16.41646581	     -0.36747983	     -7.49999987	    -48.38249316	     -1.65086026	      3.11152820	     79.82556139	      6.16403631	     74.79238241	    131.03172042	     91.28904708	     76.55594155	      0.03997885	     86.16718028	    131.05526485	     85.99065540
      5.11666670	     -9.33691339	      1.26250101	     -0.96913657	      0.76565931	      0.74249587	      0.14318033	     62.16563410	     12.12058540	     -0.65757933	     87.38724553	      1.52519516	     32.66490740	     -9.28055470	     -7.49999987	     67.67965459	     -5.88067774	     -2.06722959	     13.89853645	      0.24257522	    -16.30279864	     -0.81572446	     -7.49999987	    -47.80034480	     -1.75544569	      3.11021563	     78.86622739	      5.80980109	     75.18780898	    131.68035483	     91.04818133	     76.60365412	      0.79277963	     87.16199244	    130.86139598	     85.83107260
